<svg width="40" height="30" viewBox="0 0 40 30" fill="none" xmlns="http://www.w3.org/2000/svg">
<g clip-path="url(#clip0_412_403)">
<path fill-rule="evenodd" clip-rule="evenodd" d="M40 -4.03246e-05C39.5967 -4.03246e-05 39.2986 -4.03246e-05 39.0005 -4.03246e-05C36.4577 -4.03246e-05 33.9325 0.0355258 31.3898 -4.03246e-05C29.1627 -0.0356064 27.5493 0.942461 26.4621 2.88081C24.3227 6.6686 22.1657 10.4564 20.0088 14.2442C20.4998 15.0978 20.9908 15.9514 21.4818 16.8227C22.6743 18.9211 24.9189 19.9703 27.146 19.3657C28.0579 19.1167 28.8996 18.5477 29.7414 18.1387C29.7414 18.1387 29.7414 18.1387 29.7414 18.1564C33.0382 12.377 36.3174 6.59747 39.6142 0.81798C39.7194 0.569017 39.8247 0.337838 40 -4.03246e-05Z" fill="#006AFF"/>
<path d="M27.1285 19.3479C24.9014 19.9526 22.6567 18.9034 21.4643 16.805C20.9733 15.9514 20.4822 15.0978 19.9912 14.2264C17.8343 10.4386 15.6773 6.66863 13.5379 2.88084C12.4507 0.942487 10.8374 -0.0177981 8.61026 0.0177679C6.06751 0.053334 3.54231 0.0177679 0.999562 0.0177679C0.701447 0.0177679 0.403332 0.0177679 0 0.0177679C0.175362 0.355646 0.280579 0.586825 0.420868 0.800222C3.7352 6.63306 7.06708 12.4659 10.3814 18.2987C12.0473 21.2152 13.7133 24.1494 15.3792 27.0658C16.1859 28.4884 17.3433 29.3954 18.5883 29.7866C20.7628 30.4623 23.2354 29.5554 24.6559 27.0658C26.3569 24.096 28.0403 21.1085 29.7413 18.1387C29.7413 18.1387 29.7413 18.1387 29.7413 18.1209C28.8821 18.5299 28.0579 19.099 27.1285 19.3479Z" fill="white"/>
</g>
<defs>
<clipPath id="clip0_412_403">
<rect width="40" height="30" fill="white"/>
</clipPath>
</defs>
</svg>
